<mxfile modified="2024-01-18T09:30:05.198Z" host="app.diagrams.net" agent="Mozilla/5.0 (Macintosh; Intel Mac OS X 10_15_7) AppleWebKit/537.36 (KHTML, like Gecko) Chrome/120.0.0.0 Safari/537.36" etag="VgabDIyPw6QxA6B7nS7k" version="22.1.21" type="device">
  <diagram id="Ht1M8jgEwFfnCIfOTk4-" name="Page-1">
    <mxGraphModel dx="4132" dy="2477" grid="1" gridSize="10" guides="1" tooltips="1" connect="1" arrows="1" fold="1" page="1" pageScale="1" pageWidth="1169" pageHeight="827" math="0" shadow="0">
      <root>
        <mxCell id="0" />
        <mxCell id="1" parent="0" />
        <mxCell id="UEzPUAAOIrF-is8g5C7q-74" value="REDCap on AWS" style="points=[[0,0],[0.25,0],[0.5,0],[0.75,0],[1,0],[1,0.25],[1,0.5],[1,0.75],[1,1],[0.75,1],[0.5,1],[0.25,1],[0,1],[0,0.75],[0,0.5],[0,0.25]];outlineConnect=0;gradientColor=none;html=1;whiteSpace=wrap;fontSize=12;fontStyle=0;shape=mxgraph.aws4.group;grIcon=mxgraph.aws4.group_aws_cloud_alt;strokeColor=#232F3E;fillColor=none;verticalAlign=top;align=left;spacingLeft=30;fontColor=#232F3E;dashed=0;labelBackgroundColor=#ffffff;container=1;pointerEvents=0;collapsible=0;recursiveResize=0;" parent="1" vertex="1">
          <mxGeometry x="20" y="30" width="1080" height="750" as="geometry" />
        </mxCell>
        <mxCell id="Dcn6kLH_3c6K-tNPOsyW-28" value="Private subnet" style="points=[[0,0],[0.25,0],[0.5,0],[0.75,0],[1,0],[1,0.25],[1,0.5],[1,0.75],[1,1],[0.75,1],[0.5,1],[0.25,1],[0,1],[0,0.75],[0,0.5],[0,0.25]];outlineConnect=0;gradientColor=none;html=1;whiteSpace=wrap;fontSize=12;fontStyle=0;container=1;pointerEvents=0;collapsible=0;recursiveResize=0;shape=mxgraph.aws4.group;grIcon=mxgraph.aws4.group_security_group;grStroke=0;strokeColor=#147EBA;fillColor=#E6F2F8;verticalAlign=top;align=left;spacingLeft=30;fontColor=#147EBA;dashed=0;" vertex="1" parent="UEzPUAAOIrF-is8g5C7q-74">
          <mxGeometry x="574.5" y="40" width="195.5" height="450" as="geometry" />
        </mxCell>
        <mxCell id="Mqe46j8C1IuPMbPBtzHv-17" value="Domain config (cname)&lt;br&gt;&lt;b&gt;Amazon Route53&lt;/b&gt;" style="sketch=0;points=[[0,0,0],[0.25,0,0],[0.5,0,0],[0.75,0,0],[1,0,0],[0,1,0],[0.25,1,0],[0.5,1,0],[0.75,1,0],[1,1,0],[0,0.25,0],[0,0.5,0],[0,0.75,0],[1,0.25,0],[1,0.5,0],[1,0.75,0]];outlineConnect=0;fontColor=#232F3E;gradientColor=#945DF2;gradientDirection=north;fillColor=#5A30B5;strokeColor=#ffffff;dashed=0;verticalLabelPosition=bottom;verticalAlign=top;align=center;html=1;fontSize=12;fontStyle=0;aspect=fixed;shape=mxgraph.aws4.resourceIcon;resIcon=mxgraph.aws4.route_53;" parent="1" vertex="1">
          <mxGeometry x="-140" y="376" width="78" height="78" as="geometry" />
        </mxCell>
        <mxCell id="Dcn6kLH_3c6K-tNPOsyW-3" value="Region" style="points=[[0,0],[0.25,0],[0.5,0],[0.75,0],[1,0],[1,0.25],[1,0.5],[1,0.75],[1,1],[0.75,1],[0.5,1],[0.25,1],[0,1],[0,0.75],[0,0.5],[0,0.25]];outlineConnect=0;gradientColor=none;html=1;whiteSpace=wrap;fontSize=12;fontStyle=0;container=1;pointerEvents=0;collapsible=0;recursiveResize=0;shape=mxgraph.aws4.group;grIcon=mxgraph.aws4.group_region;strokeColor=#00A4A6;fillColor=none;verticalAlign=top;align=left;spacingLeft=30;fontColor=#147EBA;dashed=1;" vertex="1" parent="1">
          <mxGeometry x="-30" y="-10" width="1170" height="818" as="geometry" />
        </mxCell>
        <mxCell id="UEzPUAAOIrF-is8g5C7q-78" value="Config and build assets&lt;br&gt;&lt;b&gt;Amazon S3&lt;/b&gt;" style="outlineConnect=0;fontColor=#232F3E;gradientColor=none;fillColor=#277116;strokeColor=none;dashed=0;verticalLabelPosition=bottom;verticalAlign=top;align=center;html=1;fontSize=12;fontStyle=0;aspect=fixed;pointerEvents=1;shape=mxgraph.aws4.bucket_with_objects;labelBackgroundColor=#ffffff;" parent="Dcn6kLH_3c6K-tNPOsyW-3" vertex="1">
          <mxGeometry x="150" y="60" width="75" height="78" as="geometry" />
        </mxCell>
        <mxCell id="Dcn6kLH_3c6K-tNPOsyW-15" value="&lt;font color=&quot;#000000&quot;&gt;AWS App Runner managed VPC&lt;/font&gt;" style="points=[[0,0],[0.25,0],[0.5,0],[0.75,0],[1,0],[1,0.25],[1,0.5],[1,0.75],[1,1],[0.75,1],[0.5,1],[0.25,1],[0,1],[0,0.75],[0,0.5],[0,0.25]];outlineConnect=0;gradientColor=none;html=1;whiteSpace=wrap;fontSize=12;fontStyle=0;container=0;pointerEvents=0;collapsible=0;recursiveResize=0;shape=mxgraph.aws4.group;grIcon=mxgraph.aws4.group_vpc;strokeColor=#248814;fillColor=none;verticalAlign=top;align=left;spacingLeft=30;fontColor=#AAB7B8;dashed=0;" vertex="1" parent="Dcn6kLH_3c6K-tNPOsyW-3">
          <mxGeometry x="241" y="320" width="220" height="230" as="geometry" />
        </mxCell>
        <mxCell id="Dcn6kLH_3c6K-tNPOsyW-31" style="edgeStyle=orthogonalEdgeStyle;rounded=0;orthogonalLoop=1;jettySize=auto;html=1;" edge="1" parent="Dcn6kLH_3c6K-tNPOsyW-3" source="Mqe46j8C1IuPMbPBtzHv-1" target="Dcn6kLH_3c6K-tNPOsyW-30">
          <mxGeometry relative="1" as="geometry" />
        </mxCell>
        <mxCell id="Mqe46j8C1IuPMbPBtzHv-1" value="REDCap servers&lt;br&gt;&lt;b&gt;AWS App Runner&lt;/b&gt;" style="sketch=0;points=[[0,0,0],[0.25,0,0],[0.5,0,0],[0.75,0,0],[1,0,0],[0,1,0],[0.25,1,0],[0.5,1,0],[0.75,1,0],[1,1,0],[0,0.25,0],[0,0.5,0],[0,0.75,0],[1,0.25,0],[1,0.5,0],[1,0.75,0]];outlineConnect=0;fontColor=#232F3E;gradientColor=#F78E04;gradientDirection=north;fillColor=#D05C17;strokeColor=#ffffff;dashed=0;verticalLabelPosition=bottom;verticalAlign=top;align=center;html=1;fontSize=12;fontStyle=0;aspect=fixed;shape=mxgraph.aws4.resourceIcon;resIcon=mxgraph.aws4.app_runner;" parent="Dcn6kLH_3c6K-tNPOsyW-3" vertex="1">
          <mxGeometry x="312" y="385" width="78" height="78" as="geometry" />
        </mxCell>
        <mxCell id="Dcn6kLH_3c6K-tNPOsyW-50" style="edgeStyle=orthogonalEdgeStyle;rounded=0;orthogonalLoop=1;jettySize=auto;html=1;" edge="1" parent="Dcn6kLH_3c6K-tNPOsyW-3" source="Mqe46j8C1IuPMbPBtzHv-6" target="Mqe46j8C1IuPMbPBtzHv-1">
          <mxGeometry relative="1" as="geometry" />
        </mxCell>
        <mxCell id="Mqe46j8C1IuPMbPBtzHv-6" value="Versioned REDCap&lt;br&gt;Docker images&lt;br&gt;&lt;b&gt;Amazon ECR&lt;/b&gt;" style="sketch=0;points=[[0,0,0],[0.25,0,0],[0.5,0,0],[0.75,0,0],[1,0,0],[0,1,0],[0.25,1,0],[0.5,1,0],[0.75,1,0],[1,1,0],[0,0.25,0],[0,0.5,0],[0,0.75,0],[1,0.25,0],[1,0.5,0],[1,0.75,0]];outlineConnect=0;fontColor=#232F3E;gradientColor=#F78E04;gradientDirection=north;fillColor=#D05C17;strokeColor=#ffffff;dashed=0;verticalLabelPosition=bottom;verticalAlign=top;align=center;html=1;fontSize=12;fontStyle=0;aspect=fixed;shape=mxgraph.aws4.resourceIcon;resIcon=mxgraph.aws4.ecr;" parent="Dcn6kLH_3c6K-tNPOsyW-3" vertex="1">
          <mxGeometry x="312" y="120" width="78" height="78" as="geometry" />
        </mxCell>
        <mxCell id="f2SYE34LI6Cqs8GmhTz7-9" style="edgeStyle=orthogonalEdgeStyle;rounded=0;orthogonalLoop=1;jettySize=auto;html=1;" parent="Dcn6kLH_3c6K-tNPOsyW-3" source="deZ6W27eWIMEph1ER3yK-2" target="Mqe46j8C1IuPMbPBtzHv-6" edge="1">
          <mxGeometry relative="1" as="geometry" />
        </mxCell>
        <mxCell id="deZ6W27eWIMEph1ER3yK-15" value="Private subnet" style="points=[[0,0],[0.25,0],[0.5,0],[0.75,0],[1,0],[1,0.25],[1,0.5],[1,0.75],[1,1],[0.75,1],[0.5,1],[0.25,1],[0,1],[0,0.75],[0,0.5],[0,0.25]];outlineConnect=0;gradientColor=none;html=1;whiteSpace=wrap;fontSize=12;fontStyle=0;container=1;pointerEvents=0;collapsible=0;recursiveResize=0;shape=mxgraph.aws4.group;grIcon=mxgraph.aws4.group_security_group;grStroke=0;strokeColor=#147EBA;fillColor=#E6F2F8;verticalAlign=top;align=left;spacingLeft=30;fontColor=#147EBA;dashed=0;" parent="Dcn6kLH_3c6K-tNPOsyW-3" vertex="1">
          <mxGeometry x="870" y="340" width="150" height="178" as="geometry" />
        </mxCell>
        <mxCell id="Mqe46j8C1IuPMbPBtzHv-2" value="MySQL&lt;br&gt;&lt;b&gt;Amazon&lt;br&gt;Aurora Serverless&lt;/b&gt;" style="outlineConnect=0;dashed=0;verticalLabelPosition=bottom;verticalAlign=top;align=center;html=1;shape=mxgraph.aws3.rds;fillColor=#2E73B8;gradientColor=none;" parent="deZ6W27eWIMEph1ER3yK-15" vertex="1">
          <mxGeometry x="39" y="43.5" width="72" height="81" as="geometry" />
        </mxCell>
        <mxCell id="Dcn6kLH_3c6K-tNPOsyW-27" style="edgeStyle=orthogonalEdgeStyle;rounded=0;orthogonalLoop=1;jettySize=auto;html=1;entryX=0.5;entryY=0;entryDx=0;entryDy=0;entryPerimeter=0;" edge="1" parent="Dcn6kLH_3c6K-tNPOsyW-3" source="UEzPUAAOIrF-is8g5C7q-78" target="deZ6W27eWIMEph1ER3yK-2">
          <mxGeometry relative="1" as="geometry" />
        </mxCell>
        <mxCell id="deZ6W27eWIMEph1ER3yK-2" value="Build and Config&lt;br&gt;&lt;b&gt;CodeBuild&lt;/b&gt;" style="sketch=0;points=[[0,0,0],[0.25,0,0],[0.5,0,0],[0.75,0,0],[1,0,0],[0,1,0],[0.25,1,0],[0.5,1,0],[0.75,1,0],[1,1,0],[0,0.25,0],[0,0.5,0],[0,0.75,0],[1,0.25,0],[1,0.5,0],[1,0.75,0]];outlineConnect=0;fontColor=#232F3E;gradientColor=#4D72F3;gradientDirection=north;fillColor=#3334B9;strokeColor=#ffffff;dashed=0;verticalLabelPosition=bottom;verticalAlign=top;align=center;html=1;fontSize=12;fontStyle=0;aspect=fixed;shape=mxgraph.aws4.resourceIcon;resIcon=mxgraph.aws4.codebuild;" parent="Dcn6kLH_3c6K-tNPOsyW-3" vertex="1">
          <mxGeometry x="680" y="120" width="78" height="78" as="geometry" />
        </mxCell>
        <mxCell id="Dcn6kLH_3c6K-tNPOsyW-32" style="edgeStyle=orthogonalEdgeStyle;rounded=0;orthogonalLoop=1;jettySize=auto;html=1;" edge="1" parent="Dcn6kLH_3c6K-tNPOsyW-3" source="Dcn6kLH_3c6K-tNPOsyW-30" target="Mqe46j8C1IuPMbPBtzHv-2">
          <mxGeometry relative="1" as="geometry" />
        </mxCell>
        <mxCell id="Dcn6kLH_3c6K-tNPOsyW-30" value="VPC Connector" style="sketch=0;outlineConnect=0;fontColor=#232F3E;gradientColor=none;fillColor=#8C4FFF;strokeColor=none;dashed=0;verticalLabelPosition=bottom;verticalAlign=top;align=center;html=1;fontSize=12;fontStyle=0;aspect=fixed;pointerEvents=1;shape=mxgraph.aws4.elastic_network_interface;" vertex="1" parent="Dcn6kLH_3c6K-tNPOsyW-3">
          <mxGeometry x="680" y="385" width="78" height="78" as="geometry" />
        </mxCell>
        <mxCell id="Dcn6kLH_3c6K-tNPOsyW-34" value="NAT Gateway" style="sketch=0;outlineConnect=0;fontColor=#232F3E;gradientColor=none;fillColor=#8C4FFF;strokeColor=none;dashed=0;verticalLabelPosition=bottom;verticalAlign=top;align=center;html=1;fontSize=12;fontStyle=0;aspect=fixed;pointerEvents=1;shape=mxgraph.aws4.nat_gateway;" vertex="1" parent="Dcn6kLH_3c6K-tNPOsyW-3">
          <mxGeometry x="680" y="260" width="78" height="78" as="geometry" />
        </mxCell>
        <mxCell id="Mqe46j8C1IuPMbPBtzHv-23" value="Services monitoring&lt;br&gt;&lt;b&gt;Amazon GuardDuty&lt;/b&gt;" style="sketch=0;points=[[0,0,0],[0.25,0,0],[0.5,0,0],[0.75,0,0],[1,0,0],[0,1,0],[0.25,1,0],[0.5,1,0],[0.75,1,0],[1,1,0],[0,0.25,0],[0,0.5,0],[0,0.75,0],[1,0.25,0],[1,0.5,0],[1,0.75,0]];outlineConnect=0;fontColor=#232F3E;gradientColor=#F54749;gradientDirection=north;fillColor=#C7131F;strokeColor=#ffffff;dashed=0;verticalLabelPosition=bottom;verticalAlign=top;align=center;html=1;fontSize=12;fontStyle=0;aspect=fixed;shape=mxgraph.aws4.resourceIcon;resIcon=mxgraph.aws4.guardduty;" parent="Dcn6kLH_3c6K-tNPOsyW-3" vertex="1">
          <mxGeometry x="90" y="190" width="78" height="78" as="geometry" />
        </mxCell>
        <mxCell id="Dcn6kLH_3c6K-tNPOsyW-40" value="AWS Cloud" style="points=[[0,0],[0.25,0],[0.5,0],[0.75,0],[1,0],[1,0.25],[1,0.5],[1,0.75],[1,1],[0.75,1],[0.5,1],[0.25,1],[0,1],[0,0.75],[0,0.5],[0,0.25]];outlineConnect=0;gradientColor=none;html=1;whiteSpace=wrap;fontSize=12;fontStyle=0;container=1;pointerEvents=0;collapsible=0;recursiveResize=0;shape=mxgraph.aws4.group;grIcon=mxgraph.aws4.group_aws_cloud_alt;strokeColor=#232F3E;fillColor=none;verticalAlign=top;align=left;spacingLeft=30;fontColor=#232F3E;dashed=0;" vertex="1" parent="1">
          <mxGeometry x="-200" y="-30" width="1370" height="870" as="geometry" />
        </mxCell>
        <mxCell id="f2SYE34LI6Cqs8GmhTz7-4" value="&lt;font color=&quot;#000000&quot;&gt;Customer VPC&lt;/font&gt;" style="points=[[0,0],[0.25,0],[0.5,0],[0.75,0],[1,0],[1,0.25],[1,0.5],[1,0.75],[1,1],[0.75,1],[0.5,1],[0.25,1],[0,1],[0,0.75],[0,0.5],[0,0.25]];outlineConnect=0;gradientColor=none;html=1;whiteSpace=wrap;fontSize=12;fontStyle=0;container=0;pointerEvents=0;collapsible=0;recursiveResize=0;shape=mxgraph.aws4.group;grIcon=mxgraph.aws4.group_vpc;strokeColor=#248814;fillColor=none;verticalAlign=top;align=left;spacingLeft=30;fontColor=#AAB7B8;dashed=0;" parent="Dcn6kLH_3c6K-tNPOsyW-40" vertex="1">
          <mxGeometry x="720" y="75" width="510" height="500" as="geometry" />
        </mxCell>
        <mxCell id="Dcn6kLH_3c6K-tNPOsyW-36" value="VPC Endpoints" style="sketch=0;outlineConnect=0;fontColor=#232F3E;gradientColor=none;fillColor=#8C4FFF;strokeColor=none;dashed=0;verticalLabelPosition=bottom;verticalAlign=top;align=center;html=1;fontSize=12;fontStyle=0;aspect=fixed;pointerEvents=1;shape=mxgraph.aws4.endpoints;" vertex="1" parent="Dcn6kLH_3c6K-tNPOsyW-40">
          <mxGeometry x="853.25" y="520" width="78" height="78" as="geometry" />
        </mxCell>
        <mxCell id="Dcn6kLH_3c6K-tNPOsyW-49" style="edgeStyle=orthogonalEdgeStyle;rounded=0;orthogonalLoop=1;jettySize=auto;html=1;" edge="1" parent="Dcn6kLH_3c6K-tNPOsyW-40" source="Mqe46j8C1IuPMbPBtzHv-7">
          <mxGeometry relative="1" as="geometry">
            <mxPoint x="520.0000000000005" y="500" as="targetPoint" />
            <Array as="points">
              <mxPoint x="281" y="600" />
              <mxPoint x="521" y="600" />
              <mxPoint x="521" y="500" />
            </Array>
          </mxGeometry>
        </mxCell>
        <mxCell id="Mqe46j8C1IuPMbPBtzHv-7" value="Web app firewall&lt;br&gt;&lt;b&gt;AWS WAF&lt;/b&gt;" style="sketch=0;points=[[0,0,0],[0.25,0,0],[0.5,0,0],[0.75,0,0],[1,0,0],[0,1,0],[0.25,1,0],[0.5,1,0],[0.75,1,0],[1,1,0],[0,0.25,0],[0,0.5,0],[0,0.75,0],[1,0.25,0],[1,0.5,0],[1,0.75,0]];outlineConnect=0;fontColor=#232F3E;gradientColor=#F54749;gradientDirection=north;fillColor=#C7131F;strokeColor=#ffffff;dashed=0;verticalLabelPosition=bottom;verticalAlign=top;align=center;html=1;fontSize=12;fontStyle=0;aspect=fixed;shape=mxgraph.aws4.resourceIcon;resIcon=mxgraph.aws4.firewall_manager;" parent="Dcn6kLH_3c6K-tNPOsyW-40" vertex="1">
          <mxGeometry x="242" y="650" width="78" height="78" as="geometry" />
        </mxCell>
        <mxCell id="Mqe46j8C1IuPMbPBtzHv-5" value="Postfix integration&lt;br&gt;&lt;b&gt;Amazon SES&lt;/b&gt;" style="sketch=0;points=[[0,0,0],[0.25,0,0],[0.5,0,0],[0.75,0,0],[1,0,0],[0,1,0],[0.25,1,0],[0.5,1,0],[0.75,1,0],[1,1,0],[0,0.25,0],[0,0.5,0],[0,0.75,0],[1,0.25,0],[1,0.5,0],[1,0.75,0]];outlineConnect=0;fontColor=#232F3E;gradientColor=#4D72F3;gradientDirection=north;fillColor=#3334B9;strokeColor=#ffffff;dashed=0;verticalLabelPosition=bottom;verticalAlign=top;align=center;html=1;fontSize=12;fontStyle=0;aspect=fixed;shape=mxgraph.aws4.resourceIcon;resIcon=mxgraph.aws4.simple_email_service;" parent="Dcn6kLH_3c6K-tNPOsyW-40" vertex="1">
          <mxGeometry x="370" y="650" width="78" height="78" as="geometry" />
        </mxCell>
        <mxCell id="Mqe46j8C1IuPMbPBtzHv-16" value="REDCap file storage&lt;br&gt;integration&lt;br&gt;&lt;b&gt;Amazon S3&lt;/b&gt;" style="outlineConnect=0;fontColor=#232F3E;gradientColor=none;fillColor=#277116;strokeColor=none;dashed=0;verticalLabelPosition=bottom;verticalAlign=top;align=center;html=1;fontSize=12;fontStyle=0;aspect=fixed;pointerEvents=1;shape=mxgraph.aws4.bucket_with_objects;labelBackgroundColor=#ffffff;" parent="Dcn6kLH_3c6K-tNPOsyW-40" vertex="1">
          <mxGeometry x="483.5" y="650" width="75" height="78" as="geometry" />
        </mxCell>
        <mxCell id="Dcn6kLH_3c6K-tNPOsyW-48" style="edgeStyle=orthogonalEdgeStyle;rounded=0;orthogonalLoop=1;jettySize=auto;html=1;" edge="1" parent="Dcn6kLH_3c6K-tNPOsyW-40" source="TzyDiBckDBIlwYz2A17W-2">
          <mxGeometry relative="1" as="geometry">
            <mxPoint x="520.0000000000005" y="490" as="targetPoint" />
            <Array as="points">
              <mxPoint x="634" y="600" />
              <mxPoint x="521" y="600" />
              <mxPoint x="521" y="490" />
            </Array>
          </mxGeometry>
        </mxCell>
        <mxCell id="TzyDiBckDBIlwYz2A17W-2" value="REDCap CronJob&lt;br&gt;&lt;b&gt;Amazon EventBridge&lt;/b&gt;" style="sketch=0;points=[[0,0,0],[0.25,0,0],[0.5,0,0],[0.75,0,0],[1,0,0],[0,1,0],[0.25,1,0],[0.5,1,0],[0.75,1,0],[1,1,0],[0,0.25,0],[0,0.5,0],[0,0.75,0],[1,0.25,0],[1,0.5,0],[1,0.75,0]];outlineConnect=0;fontColor=#232F3E;gradientColor=#FF4F8B;gradientDirection=north;fillColor=#BC1356;strokeColor=#ffffff;dashed=0;verticalLabelPosition=bottom;verticalAlign=top;align=center;html=1;fontSize=12;fontStyle=0;aspect=fixed;shape=mxgraph.aws4.resourceIcon;resIcon=mxgraph.aws4.eventbridge;" parent="Dcn6kLH_3c6K-tNPOsyW-40" vertex="1">
          <mxGeometry x="595" y="650" width="78" height="78" as="geometry" />
        </mxCell>
        <mxCell id="Ts2uirppUvE2Wrqs1Ysz-1" value="Application logs &lt;br&gt;and monitoring&lt;br&gt;&lt;b&gt;Amazon CloudWatch&lt;/b&gt;" style="sketch=0;points=[[0,0,0],[0.25,0,0],[0.5,0,0],[0.75,0,0],[1,0,0],[0,1,0],[0.25,1,0],[0.5,1,0],[0.75,1,0],[1,1,0],[0,0.25,0],[0,0.5,0],[0,0.75,0],[1,0.25,0],[1,0.5,0],[1,0.75,0]];points=[[0,0,0],[0.25,0,0],[0.5,0,0],[0.75,0,0],[1,0,0],[0,1,0],[0.25,1,0],[0.5,1,0],[0.75,1,0],[1,1,0],[0,0.25,0],[0,0.5,0],[0,0.75,0],[1,0.25,0],[1,0.5,0],[1,0.75,0]];outlineConnect=0;fontColor=#232F3E;gradientColor=#F34482;gradientDirection=north;fillColor=#BC1356;strokeColor=#ffffff;dashed=0;verticalLabelPosition=bottom;verticalAlign=top;align=center;html=1;fontSize=12;fontStyle=0;aspect=fixed;shape=mxgraph.aws4.resourceIcon;resIcon=mxgraph.aws4.cloudwatch_2;" parent="Dcn6kLH_3c6K-tNPOsyW-40" vertex="1">
          <mxGeometry x="720" y="650" width="78" height="78" as="geometry" />
        </mxCell>
        <mxCell id="Mqe46j8C1IuPMbPBtzHv-21" value="Password and secrets&lt;br&gt;&lt;b&gt;AWS Secrets Manager&lt;/b&gt;" style="sketch=0;points=[[0,0,0],[0.25,0,0],[0.5,0,0],[0.75,0,0],[1,0,0],[0,1,0],[0.25,1,0],[0.5,1,0],[0.75,1,0],[1,1,0],[0,0.25,0],[0,0.5,0],[0,0.75,0],[1,0.25,0],[1,0.5,0],[1,0.75,0]];outlineConnect=0;fontColor=#232F3E;gradientColor=#F54749;gradientDirection=north;fillColor=#C7131F;strokeColor=#ffffff;dashed=0;verticalLabelPosition=bottom;verticalAlign=top;align=center;html=1;fontSize=12;fontStyle=0;aspect=fixed;shape=mxgraph.aws4.resourceIcon;resIcon=mxgraph.aws4.secrets_manager;" parent="Dcn6kLH_3c6K-tNPOsyW-40" vertex="1">
          <mxGeometry x="840" y="650" width="78" height="78" as="geometry" />
        </mxCell>
        <mxCell id="Ts2uirppUvE2Wrqs1Ysz-3" value="Data encryption&lt;br&gt;&lt;b&gt;AWS KMS&lt;/b&gt;" style="sketch=0;points=[[0,0,0],[0.25,0,0],[0.5,0,0],[0.75,0,0],[1,0,0],[0,1,0],[0.25,1,0],[0.5,1,0],[0.75,1,0],[1,1,0],[0,0.25,0],[0,0.5,0],[0,0.75,0],[1,0.25,0],[1,0.5,0],[1,0.75,0]];outlineConnect=0;fontColor=#232F3E;gradientColor=#F54749;gradientDirection=north;fillColor=#C7131F;strokeColor=#ffffff;dashed=0;verticalLabelPosition=bottom;verticalAlign=top;align=center;html=1;fontSize=12;fontStyle=0;aspect=fixed;shape=mxgraph.aws4.resourceIcon;resIcon=mxgraph.aws4.key_management_service;" parent="Dcn6kLH_3c6K-tNPOsyW-40" vertex="1">
          <mxGeometry x="962" y="650" width="78" height="78" as="geometry" />
        </mxCell>
        <mxCell id="Dcn6kLH_3c6K-tNPOsyW-43" style="edgeStyle=orthogonalEdgeStyle;rounded=0;orthogonalLoop=1;jettySize=auto;html=1;exitX=0.5;exitY=1;exitDx=0;exitDy=0;exitPerimeter=0;entryX=0.5;entryY=0;entryDx=0;entryDy=0;entryPerimeter=0;" edge="1" parent="1" source="Mqe46j8C1IuPMbPBtzHv-1" target="Mqe46j8C1IuPMbPBtzHv-5">
          <mxGeometry relative="1" as="geometry">
            <Array as="points">
              <mxPoint x="321" y="570" />
              <mxPoint x="209" y="570" />
            </Array>
          </mxGeometry>
        </mxCell>
        <mxCell id="Dcn6kLH_3c6K-tNPOsyW-44" style="edgeStyle=orthogonalEdgeStyle;rounded=0;orthogonalLoop=1;jettySize=auto;html=1;" edge="1" parent="1" source="Mqe46j8C1IuPMbPBtzHv-1" target="Mqe46j8C1IuPMbPBtzHv-16">
          <mxGeometry relative="1" as="geometry" />
        </mxCell>
        <mxCell id="Dcn6kLH_3c6K-tNPOsyW-46" style="edgeStyle=orthogonalEdgeStyle;rounded=0;orthogonalLoop=1;jettySize=auto;html=1;" edge="1" parent="1" source="Mqe46j8C1IuPMbPBtzHv-1" target="Ts2uirppUvE2Wrqs1Ysz-1">
          <mxGeometry relative="1" as="geometry">
            <Array as="points">
              <mxPoint x="321" y="570" />
              <mxPoint x="559" y="570" />
            </Array>
          </mxGeometry>
        </mxCell>
        <mxCell id="Dcn6kLH_3c6K-tNPOsyW-47" style="edgeStyle=orthogonalEdgeStyle;rounded=0;orthogonalLoop=1;jettySize=auto;html=1;" edge="1" parent="1" source="Mqe46j8C1IuPMbPBtzHv-1" target="Mqe46j8C1IuPMbPBtzHv-21">
          <mxGeometry relative="1" as="geometry">
            <Array as="points">
              <mxPoint x="321" y="570" />
              <mxPoint x="679" y="570" />
            </Array>
          </mxGeometry>
        </mxCell>
      </root>
    </mxGraphModel>
  </diagram>
</mxfile>
